<svg width="34" height="34" viewBox="0 0 34 34" fill="none" xmlns="http://www.w3.org/2000/svg">
<rect width="34" height="34" fill="#FF5D56"/>
<path d="M27.087 10.7602C25.8572 10.0279 24.3869 9.81389 22.9993 10.1651C21.6117 10.5163 20.4204 11.404 19.687 12.6332C19.687 12.6422 19.678 12.6422 19.678 12.6512C19.5588 12.8615 19.5272 13.1103 19.5903 13.3437C19.6534 13.5771 19.806 13.7761 20.015 13.8976C20.224 14.0192 20.4724 14.0534 20.7065 13.9928C20.9405 13.9323 21.1412 13.7819 21.265 13.5742C21.4316 13.2895 21.64 13.0313 21.883 12.8082C22.3958 12.3246 23.0406 12.004 23.7357 11.8868C24.4308 11.7696 25.145 11.8612 25.788 12.15C26.4311 12.4387 26.9741 12.9117 27.3483 13.509C27.7225 14.1064 27.9112 14.8013 27.8905 15.5059C27.8698 16.2105 27.6407 16.8931 27.232 17.4675C26.8233 18.0418 26.2535 18.4821 25.5947 18.7326C24.9358 18.9831 24.2174 19.0326 23.5304 18.8748C22.8434 18.717 22.2186 18.3591 21.735 17.8462L15.811 11.8292C14.6281 10.6789 13.0498 10.0252 11.4 10.0022C9.96973 10.0022 8.59789 10.5696 7.58551 11.58C6.57313 12.5903 6.00291 13.961 6 15.3912C6.06122 16.4038 6.38936 17.3821 6.95108 18.2268C7.5128 19.0714 8.28809 19.7524 9.19818 20.2004C10.1083 20.6485 11.1208 20.8476 12.1328 20.7777C13.1447 20.7078 14.1202 20.3712 14.96 19.8022V21.5552C14.96 24.1482 13.88 25.3482 11.555 25.3482C10.7853 25.2781 10.0469 25.0101 9.41138 24.5703C8.77586 24.1305 8.26486 23.5338 7.92801 22.8382C7.86983 22.7328 7.79143 22.6398 7.69733 22.5647C7.60322 22.4895 7.49525 22.4336 7.37955 22.4002C7.14588 22.3327 6.89498 22.3607 6.68201 22.4782C6.46904 22.5957 6.31144 22.793 6.24393 23.0267C6.17641 23.2603 6.2045 23.5113 6.32199 23.7242C6.8159 24.7077 7.55883 25.5446 8.47678 26.1517C9.39472 26.7587 10.4557 27.1147 11.554 27.1842C14.885 27.1842 16.796 25.1352 16.796 21.5552V17.5062C16.8187 17.3035 16.7725 17.0989 16.6647 16.9257C16.557 16.7524 16.394 16.6205 16.2021 16.5512C16.0102 16.4818 15.8006 16.4792 15.607 16.5436C15.4134 16.608 15.2471 16.7358 15.135 16.9062C15.126 16.9152 15.126 16.9242 15.116 16.9342C15.106 16.9442 15.088 16.9712 15.079 16.9892C14.7606 17.6265 14.2598 18.1547 13.6402 18.5064C13.0206 18.8581 12.3104 19.0175 11.6 18.9642C10.6321 18.9778 9.69714 18.6132 8.99399 17.948C8.29084 17.2827 7.87501 16.3694 7.83499 15.4022C7.83552 14.4577 8.21099 13.552 8.87888 12.8841C9.54677 12.2162 10.4525 11.8408 11.397 11.8402C12.552 11.8674 13.6562 12.3208 14.497 13.1132L20.421 19.1202C20.9956 19.7209 21.7012 20.1809 22.4827 20.4642C23.2642 20.7475 24.1006 20.8466 24.9267 20.7537C25.7528 20.6608 26.5463 20.3784 27.2453 19.9286C27.9444 19.4787 28.5302 18.8736 28.957 18.1602C29.6895 16.9308 29.904 15.4608 29.5534 14.0732C29.2028 12.6857 28.3157 11.4941 27.087 10.7602Z" fill="black"/>
</svg>
